HIERARCHY
ROOT Hips
{
  OFFSET -213.699 104.721 0.752556
  CHANNELS 6 Xposition Yposition Zposition Zrotation Xrotation Yrotation
  JOINT RightUpLeg
  {
    OFFSET -8.9458 -8.66707 0.101652
    CHANNELS 3 Zrotation Xrotation Yrotation
    JOINT RightLeg
    {
      OFFSET 0 -44.4227 1.3727
      CHANNELS 3 Zrotation Xrotation Yrotation
      JOINT RightFoot
      {
        OFFSET 0.253549 -42.0924 -1.46059
        CHANNELS 3 Zrotation Xrotation Yrotation
        JOINT RightToes
        {
          OFFSET 0.04 -4.41509 8.4991
          CHANNELS 3 Zrotation Xrotation Yrotation
          End Site
          {
            OFFSET -0.08 -0.137448 9.77979
          }
        }
      }
    }
  }
  JOINT Spine
  {
    OFFSET 0 11.8905 0
    CHANNELS 3 Zrotation Xrotation Yrotation
    JOINT Spine1
    {
      OFFSET 0 25.6574 0.127663
      CHANNELS 3 Zrotation Xrotation Yrotation
      JOINT HEad
      {
        OFFSET 0 8.73416 0.011341
        CHANNELS 3 Zrotation Xrotation Yrotation
        End Site
        {
          OFFSET -0.29 12.7742 2.51395
        }
      }
      JOINT LeftShoulder1
      {
        OFFSET 8.99 -0.362252 -0.22
        CHANNELS 3 Zrotation Xrotation Yrotation
        JOINT LeftArm
        {
          OFFSET 10.2827 -0.00337999 0.322123
          CHANNELS 3 Zrotation Xrotation Yrotation
          JOINT LeftForeArm
          {
            OFFSET 26.2597 0.099144 -1.42434
            CHANNELS 3 Zrotation Xrotation Yrotation
            JOINT LeftHand
            {
              OFFSET 22.0902 0.085362 1.02216
              CHANNELS 3 Zrotation Xrotation Yrotation
              End Site
              {
                OFFSET 13.419 -0.6 1.50291
              }
            }
          }
        }
      }
      JOINT RightShoulder
      {
        OFFSET -8.99 -0.362252 -0.22
        CHANNELS 3 Zrotation Xrotation Yrotation
        JOINT RightArm
        {
          OFFSET -10.2827 -0.00338 0.322123
          CHANNELS 3 Zrotation Xrotation Yrotation
          JOINT RightForeArm
          {
            OFFSET -26.364 0.099144 -1.42434
            CHANNELS 3 Zrotation Xrotation Yrotation
            JOINT RightHand
            {
              OFFSET -22.0324 0.085362 1.02216
              CHANNELS 3 Zrotation Xrotation Yrotation
              End Site
              {
                OFFSET -13.3284 -0.6 1.50291
              }
            }
          }
        }
      }
    }
  }
  JOINT LeftUpLeg
  {
    OFFSET 8.9458 -8.66707 0.101652
    CHANNELS 3 Zrotation Xrotation Yrotation
    JOINT LeftLeg
    {
      OFFSET 0 -44.4227 1.3727
      CHANNELS 3 Zrotation Xrotation Yrotation
      JOINT LeftFoot
      {
        OFFSET -0.253549 -42.0924 -1.46059
        CHANNELS 3 Zrotation Xrotation Yrotation
        JOINT LeftToes
        {
          OFFSET -0.04 -4.41509 8.4991
          CHANNELS 3 Zrotation Xrotation Yrotation
          End Site
          {
            OFFSET 0.08 -0.047448 9.77979
          }
        }
      }
    }
  }
}
MOTION
Frames:	19
Frame Time:	0.0333333
-211.806 103.949 -68.7775 -0.00194317 0.456657 85.8587 1.56585 -0.485144 -0.381786 -1.30963 10.1745 -7.23773 -4.44189 -5.25154 -0.0628466 0.0462048 0.000530889 0.662642 -4.04493 -0.840367 -1.03973 2.90814 8.68575 -1.67658 -3.03531 2.69002 -2.58463 -32.841 -4.20381 14.2871 -80.342 -45.207 -37.4704 -171.858 67.0903 175.136 10.7547 8.68347 -8.75446 31.149 -1.61397 -8.40972 53.5528 -20.7033 19.6112 10.0729 65.7091 4.46287 -1.04445 9.89132 0.769329 -3.14259 -1.5119 0.0618568 1.48595 9.38841 15.5116 4.33465 -5.7971 -0.0532776 -1.32485e-009 8.75259e-006 -1.47734e-008 
-211.802 103.934 -68.7775 -0.0255875 0.474906 85.8589 1.532 -0.528551 -0.402998 -1.28262 10.2217 -7.22181 -4.43135 -5.32797 -0.0628543 0.0462048 0.000530889 0.662642 -4.05057 -0.894023 -1.0453 2.8952 8.73316 -1.68109 -3.15282 2.79414 -2.59527 -32.861 -4.2158 14.3122 -80.3173 -45.1922 -37.4878 -171.829 67.1718 175.082 10.7772 8.67773 -8.78923 31.2048 -1.61656 -8.4235 53.5574 -20.7777 19.6934 10.1222 65.7909 4.38481 -0.98028 9.89126 0.798625 -3.17303 -1.57098 0.0393154 1.50045 9.46196 15.5285 4.38453 -5.84945 -0.0532826 -1.32485e-009 8.75259e-006 -1.47734e-008 
-211.789 103.929 -68.7777 -0.0286907 0.464499 85.7983 1.54639 -0.560475 -0.388486 -1.29477 10.2737 -7.20974 -4.51499 -5.31446 -0.0628529 0.0462048 0.000530889 0.662642 -4.00456 -0.896144 -1.03718 2.86564 8.72164 -1.66574 -3.134 3.04105 -2.515 -32.9222 -4.26255 14.4141 -80.3181 -45.1459 -37.6068 -171.649 67.675 174.836 10.5905 8.70233 -8.7713 31.134 -1.59705 -8.37916 53.633 -20.7859 19.7124 10.2748 65.7531 4.2125 -0.97235 9.89104 0.884933 -3.16619 -1.55671 0.0478447 1.50023 9.43809 15.5936 4.3899 -5.84384 -0.053282 -1.32485e-009 8.75259e-006 -1.47734e-008 
-211.779 103.926 -68.7824 -0.0142501 0.477565 85.7635 1.54874 -0.489579 -0.369419 -1.33955 10.1642 -7.19007 -4.52496 -5.26706 -0.0628481 0.0462048 0.000530889 0.662642 -4.02097 -0.913049 -1.0278 2.90493 8.76042 -1.66446 -3.15429 3.11684 -2.32551 -32.9788 -4.30082 14.4956 -80.4566 -45.1338 -37.8064 -171.738 67.4409 175.032 10.6788 8.69217 -8.77148 31.0566 -1.56226 -8.29571 53.7072 -20.8434 19.6785 10.1963 65.7513 4.27097 -0.975695 9.891 0.902002 -3.19089 -1.49657 0.0310514 1.50541 9.3642 15.6564 4.40035 -5.79077 -0.053277 -1.32485e-009 8.75259e-006 -1.47734e-008 
-211.786 103.922 -68.7911 -0.0594009 0.506008 85.7117 1.49511 -0.601384 -0.411327 -1.30903 10.2642 -7.09163 -4.56319 -5.30026 -0.0628515 0.0462048 0.000530889 0.662642 -3.99636 -0.916777 -0.964413 2.80867 8.70675 -1.57343 -3.07942 3.15957 -2.40565 -32.8338 -4.22104 14.3331 -80.4747 -45.1513 -37.6903 -171.661 67.6544 174.936 9.88226 8.80995 -8.45139 31.1869 -1.6058 -8.39596 53.6858 -20.9901 19.7289 10.3629 65.8796 4.04869 -1.03828 9.89076 0.985064 -3.24029 -1.55972 -0.0174172 1.52723 9.38723 15.7698 4.41751 -5.79313 -0.0532772 -1.32485e-009 8.75259e-006 -1.47734e-008 
-211.777 103.92 -68.7909 -0.0589925 0.508633 85.7244 1.50125 -0.552638 -0.401224 -1.32635 10.1854 -7.1063 -4.50307 -5.26897 -0.0628483 0.0462048 0.000530889 0.662642 -4.01946 -0.933359 -0.968142 2.83116 8.67816 -1.5796 -3.04863 3.22337 -2.25033 -32.8189 -4.20283 14.2907 -80.3907 -45.1975 -37.6046 -171.713 67.512 175.016 8.22505 9.06918 -7.59792 31.1945 -1.56485 -8.28517 53.6446 -21.0582 19.6241 10.311 65.9073 4.09029 -1.04255 9.89075 0.988713 -3.23581 -1.51575 -0.00985958 1.51508 9.32349 15.7402 4.44198 -5.80977 -0.0532788 -1.32485e-009 8.75259e-006 -1.47734e-008 
-211.77 103.917 -68.7987 -0.0510818 0.520509 85.6917 1.48731 -0.579156 -0.417127 -1.32719 10.2627 -7.06359 -4.65792 -5.33302 -0.0628548 0.0462048 0.000530889 0.662642 -4.0203 -0.944905 -0.945566 2.82741 8.69704 -1.55592 -3.09919 3.15431 -2.15698 -32.8367 -4.20057 14.28 -80.4129 -45.2291 -37.6466 -171.909 66.9442 175.297 9.10644 8.93532 -8.07292 31.1956 -1.56605 -8.28823 53.5778 -20.957 19.5977 10.1945 65.7766 4.25259 -1.03034 9.89065 1.02465 -3.25941 -1.51306 -0.0263807 1.52441 9.33739 15.7918 4.39709 -5.80892 -0.0532787 -1.32485e-009 8.75259e-006 -1.47734e-008 
-211.764 103.915 -68.7992 -0.0364497 0.523124 85.6555 1.46173 -0.619782 -0.439792 -1.31016 10.3594 -7.00383 -4.54479 -5.33504 -0.062855 0.0462048 0.000530889 0.662642 -3.98361 -0.831927 -0.893584 2.73335 8.57573 -1.48115 -3.18367 3.28454 -2.28738 -32.7529 -4.14616 14.164 -80.4705 -45.339 -37.6498 -171.873 67.0557 175.338 8.97928 8.94201 -8.18636 31.3523 -1.63277 -8.44623 53.3986 -20.8062 19.5766 10.0959 65.8443 4.42343 -1.12656 9.89022 1.15714 -3.27203 -1.50263 -0.0368018 1.53413 9.35833 15.83 4.3935 -5.81319 -0.0532791 -1.32485e-009 8.75259e-006 -1.47734e-008 
-211.737 103.914 -68.7921 0.0136473 0.4992 85.706 1.49657 -0.509605 -0.423472 -1.32662 10.3175 -7.07502 -4.43211 -5.37245 -0.0628589 0.0462048 0.000530889 0.662642 -4.00427 -0.858822 -0.882568 2.76148 8.6774 -1.47739 -3.24805 3.57744 -2.52109 -32.6953 -4.1269 14.1304 -80.6257 -45.3198 -37.774 -171.879 67.0411 175.413 8.80242 8.96156 -8.206 31.4293 -1.67458 -8.5475 53.3247 -20.7205 19.6028 9.99757 65.8399 4.55965 -1.10315 9.88993 1.23927 -3.24748 -1.42299 -0.0281361 1.54802 9.3468 15.7569 4.28227 -5.84397 -0.053282 -1.32485e-009 8.75259e-006 -1.47734e-008 
-211.715 103.912 -68.7992 0.00272966 0.478843 85.7039 1.52581 -0.463297 -0.402218 -1.32915 10.2407 -7.07596 -4.54296 -5.35703 -0.0628573 0.0462048 0.000530889 0.662642 -3.9858 -1.00914 -0.926662 2.79131 8.82007 -1.53165 -3.26539 3.89828 -2.28374 -32.7975 -4.18827 14.2595 -80.5598 -45.2913 -37.8125 -171.892 67.0017 175.392 8.76622 8.96333 -8.24285 31.2745 -1.60897 -8.39308 53.4705 -20.7869 19.5577 9.83753 65.8208 4.69329 -1.05443 9.89009 1.19393 -3.23001 -1.44215 -0.00708016 1.54439 9.38345 15.7319 4.345 -5.84564 -0.0532822 -1.32485e-009 8.75259e-006 -1.47734e-008 
-211.706 103.911 -68.8086 0.0382747 0.452865 85.726 1.53577 -0.379949 -0.418941 -1.30714 10.1554 -7.08038 -4.60922 -5.31985 -0.0628535 0.0462048 0.000530889 0.662642 -3.85624 -0.9473 -0.911731 2.6333 8.74254 -1.4816 -3.11125 4.58119 -1.9906 -32.702 -4.14763 14.1817 -80.6678 -45.351 -37.8636 -171.896 66.9943 175.493 8.60794 8.98907 -8.13729 31.3723 -1.63445 -8.4481 53.328 -20.6323 19.4988 9.78788 65.5582 4.80844 -1.02114 9.89045 1.0878 -3.20767 -1.38891 0.0229471 1.53683 9.37401 15.7 4.4128 -5.86057 -0.0532836 -1.32485e-009 8.75259e-006 -1.47734e-008 
-211.711 103.911 -68.8036 0.0255544 0.449336 85.7069 1.5442 -0.436458 -0.404708 -1.31511 10.2229 -7.06529 -4.54704 -5.31613 -0.0628531 0.0462048 0.000530889 0.662642 -3.9744 -1.03981 -1.01248 2.62288 8.69075 -1.57265 -2.94031 5.51016 -1.21922 -32.6433 -4.13716 14.1709 -80.504 -45.4855 -37.735 -171.787 67.3246 175.354 8.36499 9.02393 -8.04069 31.4952 -1.57088 -8.26347 53.3514 -20.7311 19.451 9.90468 65.686 4.65796 -0.94099 9.89075 0.988507 -3.20384 -1.43514 0.011639 1.5476 9.44337 15.7213 4.33061 -5.90654 -0.053288 -1.32485e-009 8.75259e-006 -1.47734e-008 
-211.693 103.911 -68.8033 0.0340771 0.423773 85.7332 1.57567 -0.374753 -0.374334 -1.32172 10.1376 -7.1089 -4.48853 -5.29137 -0.0628506 0.0462048 0.000530889 0.662642 -4.20066 -1.35248 -1.22695 2.74067 8.95944 -1.81196 -3.11456 6.51372 -0.609992 -32.6767 -4.19038 14.2977 -80.3593 -45.606 -37.7357 -171.709 67.5552 175.275 8.33099 9.02601 -8.07008 31.5952 -1.42493 -7.86331 53.4142 -20.8853 19.451 9.99367 65.903 4.51251 -0.943142 9.89078 0.978882 -3.1814 -1.46472 0.0306189 1.55369 9.53348 15.69 4.3809 -5.90467 -0.0532878 -1.32485e-009 8.75259e-006 -1.47734e-008 
-211.691 103.911 -68.8084 0.0702719 0.385455 85.7281 1.62554 -0.262193 -0.336857 -1.34783 10.003 -7.1681 -4.44431 -5.23179 -0.0628446 0.0462048 0.000530889 0.662642 -3.78554 -1.06396 -0.9261 2.5112 8.53883 -1.45919 -3.31599 8.14472 -0.944066 -32.5516 -4.03575 13.9358 -80.5272 -45.6683 -37.4916 -171.864 67.0978 175.548 8.33721 9.03139 -7.97134 31.5336 -1.74809 -8.729 53.2264 -20.5744 19.5383 10.0184 65.6376 4.5889 -0.997096 9.89008 1.19674 -3.13423 -1.36413 0.0685111 1.54053 9.42219 15.6569 4.41014 -5.89549 -0.053287 -1.32485e-009 8.75259e-006 -1.47734e-008 
-211.698 103.912 -68.8105 0.0380345 0.388967 85.7477 1.61969 -0.312767 -0.338764 -1.33611 10.037 -7.19765 -4.49667 -5.26236 -0.0628476 0.0462048 0.000530889 0.662642 -3.86288 -1.13591 -0.987505 2.58237 8.47608 -1.53337 -3.75521 9.8795 -0.266562 -32.6548 -4.08745 14.0404 -80.4347 -45.6986 -37.4871 -171.746 67.4537 175.379 8.01322 9.07775 -7.83128 31.606 -1.75054 -8.72553 53.1732 -20.5963 19.5831 10.1173 65.804 4.48091 -1.01418 9.88967 1.30695 -3.1399 -1.42938 0.0488154 1.55054 9.46399 15.6322 4.38262 -5.91264 -0.0532886 -1.32485e-009 8.75259e-006 -1.47734e-008 
-211.69 103.913 -68.7991 0.0875392 0.381252 85.7403 1.6341 -0.214499 -0.34865 -1.33337 9.97725 -7.17755 -4.59763 -5.255 -0.0628469 0.0462048 0.000530889 0.662642 -3.82334 -1.25144 -1.01362 2.53376 8.57799 -1.54776 -4.11337 11.3182 0.533621 -32.7082 -4.16541 14.2256 -80.4421 -45.5718 -37.6107 -171.696 67.594 175.252 8.30593 9.03814 -7.92593 31.5562 -1.69614 -8.58782 53.2347 -20.7434 19.5511 10.0821 65.804 4.47136 -0.91009 9.8887 1.14286 -3.11316 -1.34664 0.0980809 1.51955 9.42567 15.5802 4.46236 -5.91366 -0.0532887 -1.32485e-009 8.75259e-006 -1.47734e-008 
-211.702 103.914 -68.8084 0.124831 0.379447 85.8129 1.63339 -0.216729 -0.354725 -1.33784 10.0485 -7.228 -4.54641 -5.25214 -0.0628466 0.0462048 0.000530889 0.662642 -3.84274 -1.32804 -1.06288 2.59475 8.65674 -1.61204 -4.266 12.8484 1.31703 -32.7556 -4.18745 14.2689 -80.2225 -45.4261 -37.4302 -171.738 67.4472 175.097 8.18569 9.05662 -7.85298 31.4028 -1.65581 -8.50132 53.3241 -20.7094 19.5381 10.0677 65.5633 4.4865 -1.02248 9.88332 1.2328 -3.12926 -1.32687 0.0770233 1.53969 9.44922 15.562 4.4601 -5.91209 -0.0532886 -1.32485e-009 8.75259e-006 -1.47734e-008 
-211.743 103.916 -68.7979 0.106532 0.3873 85.8282 1.63242 -0.28095 -0.339876 -1.3377 10.0833 -7.27426 -4.47145 -5.26843 -0.0628483 0.0462048 0.000530889 0.662642 -3.86781 -1.32198 -1.05234 2.62519 8.57269 -1.60603 -4.44036 14.2443 1.82603 -32.7371 -4.15644 14.1947 -80.2266 -45.4392 -37.3655 -171.769 67.3584 175.143 8.17876 9.06549 -7.7272 31.3331 -1.62467 -8.42683 53.2637 -20.607 19.4239 10.0067 65.3698 4.59146 -1.15358 9.8759 1.24223 -3.12811 -1.40002 0.0676663 1.54084 9.48621 15.5466 4.42043 -5.86904 -0.0532844 -1.32485e-009 8.75259e-006 -1.47734e-008 
-211.787 103.918 -68.7919 0.0489594 0.410383 85.8415 1.62454 -0.419651 -0.320786 -1.34341 10.182 -7.29262 -4.49515 -5.28151 -0.0628496 0.0462048 0.000530889 0.662642 -3.92658 -1.43144 -1.09356 2.72622 8.67631 -1.67093 -4.73776 14.9307 2.50326 -32.8269 -4.18936 14.2539 -80.1254 -45.3843 -37.3139 -171.689 67.5741 174.951 8.49833 9.02161 -7.82849 31.1265 -1.51095 -8.14934 53.2511 -20.3824 19.2448 9.68049 65.1238 5.00904 -1.29508 9.86646 1.16064 -3.13977 -1.51955 0.0518836 1.53287 9.54211 15.5407 4.51597 -5.86666 -0.0532842 -1.32485e-009 8.75259e-006 -1.47734e-008 
